<svg width="256" height="311" viewBox="0 0 256 311" fill="none" xmlns="http://www.w3.org/2000/svg">
<path fill-rule="evenodd" clip-rule="evenodd" d="M326.112 70.246C326.112 109.042 295.405 140.492 257.525 140.492C191.057 140.492 137.174 195.678 137.174 263.754C137.174 302.55 106.467 334 68.5871 334C30.7075 334 0 302.55 0 263.754C0 238.584 12.9251 216.506 32.348 204.103C60.7018 185.976 64.3526 150.332 32.3524 129.9C12.9269 117.497 0 95.4176 0 70.246C0 31.4502 30.7075 0 68.5871 0C106.467 0 137.174 31.4502 137.174 70.246C137.174 95.4176 124.247 117.497 104.822 129.9C81.6089 144.722 77.1559 167.548 87.2838 185.886C89.2403 189.428 93.3505 190.965 97.2185 189.999C149.864 176.841 188.938 128.217 188.938 70.246C188.938 31.4502 219.646 0 257.525 0C295.405 0 326.112 31.4502 326.112 70.246ZM258.413 333.549C296.293 333.549 327 302.099 327 263.303C327 224.507 296.293 193.057 258.413 193.057C220.533 193.057 189.826 224.507 189.826 263.303C189.826 302.099 220.533 333.549 258.413 333.549Z" fill="url(#paint0_radial_542_758)"/>
<defs>
<radialGradient id="paint0_radial_542_758" cx="0" cy="0" r="1" gradientUnits="userSpaceOnUse" gradientTransform="translate(16.3931 16.0577) rotate(50.6682) scale(438.334 451.736)">
<stop stop-color="#CCDCFF" stop-opacity="0.8"/>
<stop offset="1" stop-color="#ABC6FF" stop-opacity="0"/>
</radialGradient>
</defs>
</svg>
