<svg width="20" height="16" viewBox="0 0 20 16" fill="none" xmlns="http://www.w3.org/2000/svg">
<path d="M11.75 5.125C12.2148 5.125 12.625 5.53516 12.625 6V9.5C12.625 9.99219 12.2148 10.375 11.75 10.375H8.25C7.75781 10.375 7.375 9.99219 7.375 9.5V6C7.375 5.53516 7.75781 5.125 8.25 5.125H11.75ZM11.3125 9.0625V6.4375H8.6875V9.0625H11.3125ZM16.3438 8.40625H15.25V9.71875H16.3438C16.6992 9.71875 17 10.0195 17 10.375C17 10.7578 16.6992 11.0312 16.3438 11.0312H15.25V11.25C15.25 12.2344 14.457 13 13.5 13H13.2812V14.0938C13.2812 14.4766 12.9805 14.75 12.625 14.75C12.2422 14.75 11.9688 14.4766 11.9688 14.0938V13H10.6562V14.0938C10.6562 14.4766 10.3555 14.75 10 14.75C9.61719 14.75 9.34375 14.4766 9.34375 14.0938V13H8.03125V14.0938C8.03125 14.4766 7.73047 14.75 7.375 14.75C6.99219 14.75 6.71875 14.4766 6.71875 14.0938V13H6.5C5.51562 13 4.75 12.2344 4.75 11.25V11.0312H3.65625C3.27344 11.0312 3 10.7578 3 10.375C3 10.0195 3.27344 9.71875 3.65625 9.71875H4.75V8.40625H3.65625C3.27344 8.40625 3 8.13281 3 7.75C3 7.39453 3.27344 7.09375 3.65625 7.09375H4.75V5.78125H3.65625C3.27344 5.78125 3 5.50781 3 5.125C3 4.76953 3.27344 4.46875 3.65625 4.46875H4.75V4.25C4.75 3.29297 5.51562 2.5 6.5 2.5H6.71875V1.40625C6.71875 1.05078 6.99219 0.75 7.375 0.75C7.73047 0.75 8.03125 1.05078 8.03125 1.40625V2.5H9.34375V1.40625C9.34375 1.05078 9.61719 0.75 10 0.75C10.3555 0.75 10.6562 1.05078 10.6562 1.40625V2.5H11.9688V1.40625C11.9688 1.05078 12.2422 0.75 12.625 0.75C12.9805 0.75 13.2812 1.05078 13.2812 1.40625V2.5H13.5C14.457 2.5 15.25 3.29297 15.25 4.25V4.46875H16.3438C16.6992 4.46875 17 4.76953 17 5.125C17 5.50781 16.6992 5.78125 16.3438 5.78125H15.25V7.09375H16.3438C16.6992 7.09375 17 7.39453 17 7.75C17 8.13281 16.6992 8.40625 16.3438 8.40625ZM13.9375 11.25V4.25C13.9375 4.03125 13.7188 3.8125 13.5 3.8125H6.5C6.25391 3.8125 6.0625 4.03125 6.0625 4.25V11.25C6.0625 11.4961 6.25391 11.6875 6.5 11.6875H13.5C13.7188 11.6875 13.9375 11.4961 13.9375 11.25Z" fill="white"/>
</svg>
