<svg width="64" height="64" viewBox="0 0 64 64" fill="none" xmlns="http://www.w3.org/2000/svg">
<g filter="url(#filter0_d_934_1875)">
<rect x="16" y="16" width="32" height="32" rx="16" fill="white" shape-rendering="crispEdges"/>
<rect x="16.5" y="16.5" width="31" height="31" rx="15.5" stroke="#E5ECFB" shape-rendering="crispEdges"/>
<path d="M30.5312 25.5L36.25 31.4688C36.375 31.625 36.4688 31.8125 36.4688 32C36.4688 32.1875 36.375 32.375 36.25 32.5L30.5312 38.4688C30.25 38.7812 29.75 38.7812 29.4688 38.5C29.1562 38.2188 29.1562 37.75 29.4375 37.4375L34.6875 31.9688L29.4375 26.5312C29.1562 26.25 29.1562 25.75 29.4688 25.4688C29.75 25.1875 30.25 25.1875 30.5312 25.5Z" fill="#121C33"/>
</g>
<defs>
<filter id="filter0_d_934_1875" x="0" y="0" width="64" height="64" filterUnits="userSpaceOnUse" color-interpolation-filters="sRGB">
<feFlood flood-opacity="0" result="BackgroundImageFix"/>
<feColorMatrix in="SourceAlpha" type="matrix" values="0 0 0 0 0 0 0 0 0 0 0 0 0 0 0 0 0 0 127 0" result="hardAlpha"/>
<feOffset/>
<feGaussianBlur stdDeviation="8"/>
<feComposite in2="hardAlpha" operator="out"/>
<feColorMatrix type="matrix" values="0 0 0 0 0 0 0 0 0 0 0 0 0 0 0 0 0 0 0.08 0"/>
<feBlend mode="normal" in2="BackgroundImageFix" result="effect1_dropShadow_934_1875"/>
<feBlend mode="normal" in="SourceGraphic" in2="effect1_dropShadow_934_1875" result="shape"/>
</filter>
</defs>
</svg>
