<svg width="13" height="15" viewBox="0 0 13 15" fill="none" xmlns="http://www.w3.org/2000/svg">
<path d="M7.5 1.125V1.61719C9.46875 1.94531 11 3.66797 11 5.71875V6.64844C11 7.87891 11.4102 9.08203 12.1758 10.0664L12.5859 10.5586C12.75 10.7773 12.7773 11.0508 12.668 11.2695C12.5586 11.4883 12.3398 11.625 12.0938 11.625H1.15625C0.882812 11.625 0.664062 11.4883 0.554688 11.2695C0.445312 11.0508 0.472656 10.7773 0.636719 10.5586L1.04688 10.0664C1.8125 9.08203 2.25 7.87891 2.25 6.64844V5.71875C2.25 3.66797 3.75391 1.94531 5.75 1.61719V1.125C5.75 0.660156 6.13281 0.25 6.625 0.25C7.08984 0.25 7.5 0.660156 7.5 1.125ZM6.40625 2.875C4.82031 2.875 3.5625 4.16016 3.5625 5.71875V6.64844C3.5625 7.96094 3.17969 9.21875 2.46875 10.3125H10.7539C10.043 9.21875 9.6875 7.96094 9.6875 6.64844V5.71875C9.6875 4.16016 8.40234 2.875 6.84375 2.875H6.40625ZM8.375 12.5C8.375 12.9648 8.18359 13.4297 7.85547 13.7578C7.52734 14.0859 7.0625 14.25 6.625 14.25C6.16016 14.25 5.69531 14.0859 5.36719 13.7578C5.03906 13.4297 4.875 12.9648 4.875 12.5H8.375Z" fill="white"/>
</svg>
