<svg width="32" height="33" viewBox="0 0 32 33" fill="none" xmlns="http://www.w3.org/2000/svg">
<rect y="0.5" width="32" height="32" rx="3.5" fill="#E2EAFB"/>
<path d="M8.96875 22.9688C8.96875 23.2799 9.22012 23.5312 9.53125 23.5312H22.4688C22.7799 23.5312 23.0312 23.2799 23.0312 22.9688V15.5859H8.96875V22.9688ZM22.4688 10.7344H19.5156V9.60938C19.5156 9.53203 19.4523 9.46875 19.375 9.46875H18.3906C18.3133 9.46875 18.25 9.53203 18.25 9.60938V10.7344H13.75V9.60938C13.75 9.53203 13.6867 9.46875 13.6094 9.46875H12.625C12.5477 9.46875 12.4844 9.53203 12.4844 9.60938V10.7344H9.53125C9.22012 10.7344 8.96875 10.9857 8.96875 11.2969V14.3906H23.0312V11.2969C23.0312 10.9857 22.7799 10.7344 22.4688 10.7344Z" fill="#3371F2"/>
</svg>
