<svg width="38" height="54" viewBox="0 0 38 54" fill="none" xmlns="http://www.w3.org/2000/svg">
<mask id="path-1-inside-1_934_5035" fill="white">
<path d="M0 0H38V54H0V0Z"/>
</mask>
<path d="M0 0H38V54H0V0Z" fill="#F4F6FC"/>
<path d="M38 54V53H0V54V55H38V54Z" fill="#E8E7E7" mask="url(#path-1-inside-1_934_5035)"/>
<path d="M18.9785 34.2188C19.1365 34.2188 19.293 34.1876 19.4389 34.1272C19.5849 34.0667 19.7175 33.9781 19.8293 33.8664C19.941 33.7546 20.0296 33.622 20.0901 33.476C20.1505 33.3301 20.1816 33.1736 20.1816 33.0156C20.1816 32.8576 20.1505 32.7012 20.0901 32.5552C20.0296 32.4092 19.941 32.2766 19.8293 32.1649C19.7175 32.0532 19.5849 31.9645 19.4389 31.9041C19.293 31.8436 19.1365 31.8125 18.9785 31.8125C18.8205 31.8125 18.6641 31.8436 18.5181 31.9041C18.3721 31.9645 18.2395 32.0532 18.1278 32.1649C18.0161 32.2766 17.9274 32.4092 17.867 32.5552C17.8065 32.7012 17.7754 32.8576 17.7754 33.0156C17.7754 33.1736 17.8065 33.3301 17.867 33.476C17.9274 33.622 18.0161 33.7546 18.1278 33.8664C18.2395 33.9781 18.3721 34.0667 18.5181 34.1272C18.6641 34.1876 18.8205 34.2188 18.9785 34.2188ZM18.9785 28.2031C19.2976 28.2031 19.6036 28.0764 19.8293 27.8507C20.0549 27.6251 20.1816 27.3191 20.1816 27C20.1816 26.6809 20.0549 26.3749 19.8293 26.1493C19.6036 25.9236 19.2976 25.7969 18.9785 25.7969C18.6594 25.7969 18.3534 25.9236 18.1278 26.1493C17.9021 26.3749 17.7754 26.6809 17.7754 27C17.7754 27.3191 17.9021 27.6251 18.1278 27.8507C18.3534 28.0764 18.6594 28.2031 18.9785 28.2031ZM18.9785 22.1875C19.2976 22.1875 19.6036 22.0607 19.8293 21.8351C20.0549 21.6095 20.1816 21.3035 20.1816 20.9844C20.1816 20.6653 20.0549 20.3593 19.8293 20.1336C19.6036 19.908 19.2976 19.7812 18.9785 19.7812C18.6594 19.7812 18.3534 19.908 18.1278 20.1336C17.9021 20.3593 17.7754 20.6653 17.7754 20.9844C17.7754 21.3035 17.9021 21.6095 18.1278 21.8351C18.3534 22.0607 18.6594 22.1875 18.9785 22.1875Z" fill="#1A2035"/>
</svg>
