<svg width="32" height="33" viewBox="0 0 32 33" fill="none" xmlns="http://www.w3.org/2000/svg">
<rect y="0.5" width="32" height="32" rx="3.5" fill="#E2EAFB"/>
<path d="M22.4688 9.46875H9.53125C9.22012 9.46875 8.96875 9.72012 8.96875 10.0312V22.9688C8.96875 23.2799 9.22012 23.5312 9.53125 23.5312H22.4688C22.7799 23.5312 23.0312 23.2799 23.0312 22.9688V10.0312C23.0312 9.72012 22.7799 9.46875 22.4688 9.46875ZM19.2256 13.9283L15.5236 19.0611C15.4719 19.1334 15.4037 19.1922 15.3247 19.2328C15.2456 19.2734 15.1581 19.2946 15.0692 19.2946C14.9804 19.2946 14.8928 19.2734 14.8138 19.2328C14.7348 19.1922 14.6666 19.1334 14.6148 19.0611L12.4229 16.0236C12.3561 15.9305 12.4229 15.8004 12.5371 15.8004H13.3615C13.5408 15.8004 13.7113 15.8865 13.8168 16.0342L15.0684 17.7709L17.8316 13.9389C17.9371 13.793 18.1059 13.7051 18.2869 13.7051H19.1113C19.2256 13.7051 19.2924 13.8352 19.2256 13.9283Z" fill="#3371F2"/>
</svg>
