<svg width="20" height="16" viewBox="0 0 20 16" fill="none" xmlns="http://www.w3.org/2000/svg">
<path d="M14.7305 3.32031C15.0586 3.64844 15.25 4.08594 15.25 4.55078V13C15.25 13.9844 14.457 14.75 13.5 14.75H6.5C5.51562 14.75 4.75 13.9844 4.75 13V2.5C4.75 1.54297 5.51562 0.75 6.5 0.75H11.4492C11.9141 0.75 12.3516 0.941406 12.6797 1.26953L14.7305 3.32031ZM13.9375 13H13.9102V5.125H11.75C11.2578 5.125 10.875 4.74219 10.875 4.25V2.08984H6.5C6.25391 2.08984 6.0625 2.28125 6.0625 2.52734V13C6.0625 13.2461 6.25391 13.4375 6.5 13.4375H13.5C13.7188 13.4375 13.9375 13.2461 13.9375 13ZM9.28906 9.63672L11.4492 7.12109C11.6953 6.84766 12.1055 6.82031 12.3789 7.03906C12.6523 7.28516 12.6797 7.69531 12.4609 7.96875L9.83594 11.0312C9.69922 11.168 9.53516 11.25 9.34375 11.25C9.15234 11.25 8.98828 11.1953 8.85156 11.0586L7.53906 9.74609C7.26562 9.5 7.26562 9.08984 7.53906 8.81641C7.78516 8.57031 8.19531 8.57031 8.46875 8.81641L9.28906 9.63672Z" fill="white"/>
</svg>
