<svg width="20" height="15" viewBox="0 0 20 15" fill="none" xmlns="http://www.w3.org/2000/svg">
<path d="M17.6289 7.03906C17.9023 7.28516 17.9297 7.69531 17.7109 7.96875C17.4648 8.24219 17.0547 8.26953 16.7812 8.05078L16.125 7.47656V12.5625C16.125 13.793 15.1406 14.75 13.9375 14.75H6.0625C4.83203 14.75 3.875 13.793 3.875 12.5625V7.47656L3.19141 8.05078C2.91797 8.26953 2.50781 8.24219 2.26172 7.96875C2.04297 7.69531 2.07031 7.28516 2.34375 7.03906L9.5625 0.914062C9.80859 0.722656 10.1641 0.722656 10.4102 0.914062L17.6289 7.03906ZM6.0625 13.4375H7.375V9.28125C7.375 8.67969 7.83984 8.1875 8.46875 8.1875H11.5312C12.1328 8.1875 12.625 8.67969 12.625 9.28125V13.4375H13.9375C14.4023 13.4375 14.8125 13.0547 14.8125 12.5625V6.35547L10 2.28125L5.1875 6.35547V12.5625C5.1875 13.0547 5.57031 13.4375 6.0625 13.4375ZM8.6875 13.4375H11.3125V9.5H8.6875V13.4375Z" fill="white"/>
</svg>
