<svg width="22" height="22" viewBox="0 0 22 22" fill="none" xmlns="http://www.w3.org/2000/svg">
<path d="M10.9785 18.2188C11.1365 18.2188 11.293 18.1876 11.4389 18.1272C11.5849 18.0667 11.7175 17.9781 11.8293 17.8664C11.941 17.7546 12.0296 17.622 12.0901 17.476C12.1505 17.3301 12.1816 17.1736 12.1816 17.0156C12.1816 16.8576 12.1505 16.7012 12.0901 16.5552C12.0296 16.4092 11.941 16.2766 11.8293 16.1649C11.7175 16.0532 11.5849 15.9645 11.4389 15.9041C11.293 15.8436 11.1365 15.8125 10.9785 15.8125C10.8205 15.8125 10.6641 15.8436 10.5181 15.9041C10.3721 15.9645 10.2395 16.0532 10.1278 16.1649C10.0161 16.2766 9.92744 16.4092 9.86697 16.5552C9.80651 16.7012 9.77539 16.8576 9.77539 17.0156C9.77539 17.1736 9.80651 17.3301 9.86697 17.476C9.92744 17.622 10.0161 17.7546 10.1278 17.8664C10.2395 17.9781 10.3721 18.0667 10.5181 18.1272C10.6641 18.1876 10.8205 18.2188 10.9785 18.2188ZM10.9785 12.2031C11.2976 12.2031 11.6036 12.0764 11.8293 11.8507C12.0549 11.6251 12.1816 11.3191 12.1816 11C12.1816 10.6809 12.0549 10.3749 11.8293 10.1493C11.6036 9.92363 11.2976 9.79688 10.9785 9.79688C10.6594 9.79688 10.3534 9.92363 10.1278 10.1493C9.90215 10.3749 9.77539 10.6809 9.77539 11C9.77539 11.3191 9.90215 11.6251 10.1278 11.8507C10.3534 12.0764 10.6594 12.2031 10.9785 12.2031ZM10.9785 6.1875C11.2976 6.1875 11.6036 6.06074 11.8293 5.83511C12.0549 5.60948 12.1816 5.30346 12.1816 4.98438C12.1816 4.66529 12.0549 4.35927 11.8293 4.13364C11.6036 3.90801 11.2976 3.78125 10.9785 3.78125C10.6594 3.78125 10.3534 3.90801 10.1278 4.13364C9.90215 4.35927 9.77539 4.66529 9.77539 4.98438C9.77539 5.30346 9.90215 5.60948 10.1278 5.83511C10.3534 6.06074 10.6594 6.1875 10.9785 6.1875Z" fill="#1A2035"/>
</svg>
