<svg width="13" height="10" viewBox="0 0 13 10" fill="none" xmlns="http://www.w3.org/2000/svg">
<path d="M1.3335 8C1.86475 8 2.3335 8.46875 2.3335 9C2.3335 9.5625 1.86475 10 1.3335 10C0.770996 10 0.333496 9.5625 0.333496 9C0.333496 8.46875 0.770996 8 1.3335 8ZM6.3335 8C6.86475 8 7.3335 8.46875 7.3335 9C7.3335 9.5625 6.86475 10 6.3335 10C5.771 10 5.3335 9.5625 5.3335 9C5.3335 8.46875 5.771 8 6.3335 8ZM11.3335 8C11.8647 8 12.3335 8.46875 12.3335 9C12.3335 9.5625 11.8647 10 11.3335 10C10.771 10 10.3335 9.5625 10.3335 9C10.3335 8.46875 10.771 8 11.3335 8ZM1.3335 4C1.86475 4 2.3335 4.46875 2.3335 5C2.3335 5.5625 1.86475 6 1.3335 6C0.770996 6 0.333496 5.5625 0.333496 5C0.333496 4.46875 0.770996 4 1.3335 4ZM6.3335 4C6.86475 4 7.3335 4.46875 7.3335 5C7.3335 5.5625 6.86475 6 6.3335 6C5.771 6 5.3335 5.5625 5.3335 5C5.3335 4.46875 5.771 4 6.3335 4ZM11.3335 4C11.8647 4 12.3335 4.46875 12.3335 5C12.3335 5.5625 11.8647 6 11.3335 6C10.771 6 10.3335 5.5625 10.3335 5C10.3335 4.46875 10.771 4 11.3335 4ZM1.3335 0C1.86475 0 2.3335 0.46875 2.3335 1C2.3335 1.5625 1.86475 2 1.3335 2C0.770996 2 0.333496 1.5625 0.333496 1C0.333496 0.46875 0.770996 0 1.3335 0ZM6.3335 0C6.86475 0 7.3335 0.46875 7.3335 1C7.3335 1.5625 6.86475 2 6.3335 2C5.771 2 5.3335 1.5625 5.3335 1C5.3335 0.46875 5.771 0 6.3335 0ZM11.3335 0C11.8647 0 12.3335 0.46875 12.3335 1C12.3335 1.5625 11.8647 2 11.3335 2C10.771 2 10.3335 1.5625 10.3335 1C10.3335 0.46875 10.771 0 11.3335 0Z" fill="white"/>
</svg>
