<svg width="10" height="13" viewBox="0 0 10 13" fill="none" xmlns="http://www.w3.org/2000/svg">
<path d="M4.4375 10.625C4.90234 10.625 5.3125 11.0352 5.3125 11.5C5.3125 11.9922 4.90234 12.4023 4.4375 12.4023C3.94531 12.4023 3.5625 11.9922 3.5625 11.5C3.5625 11.0352 3.94531 10.625 4.4375 10.625ZM6.26953 0.125C7.91016 0.125 9.25 1.46484 9.25 3.10547C9.25 4.22656 8.62109 5.23828 7.63672 5.75781L5.66797 6.79688C5.3125 6.98828 5.09375 7.34375 5.09375 7.75391V8.21875C5.09375 8.60156 4.79297 8.90234 4.4375 8.90234C4.05469 8.90234 3.78125 8.60156 3.78125 8.21875V7.75391C3.78125 6.85156 4.24609 6.03125 5.06641 5.62109L7.03516 4.58203C7.58203 4.30859 7.9375 3.73438 7.9375 3.10547C7.9375 2.20312 7.17188 1.4375 6.26953 1.4375H3.34375C2.49609 1.4375 1.8125 2.14844 1.8125 2.96875V3.40625C1.8125 3.78906 1.51172 4.0625 1.15625 4.0625C0.773438 4.0625 0.5 3.78906 0.5 3.40625V2.96875C0.5 1.41016 1.75781 0.125 3.34375 0.125H6.26953Z" fill="white"/>
</svg>
