<svg width="20" height="16" viewBox="0 0 20 16" fill="none" xmlns="http://www.w3.org/2000/svg">
<path d="M5.98047 4.35938C7.51172 2.82812 10 2.82812 11.5312 4.35938C13.0078 5.80859 13.0625 8.16016 11.7227 9.71875L11.5586 9.88281C11.3125 10.1562 10.9023 10.1836 10.6289 9.96484C10.3555 9.71875 10.3281 9.30859 10.5742 9.03516L10.7109 8.87109C11.6406 7.83203 11.5859 6.27344 10.6016 5.28906C9.58984 4.25 7.92188 4.25 6.88281 5.28906L3.79297 8.37891C2.78125 9.41797 2.78125 11.0586 3.79297 12.0977C4.77734 13.0547 6.33594 13.1094 7.375 12.207L7.53906 12.0703C7.8125 11.8242 8.22266 11.8516 8.46875 12.125C8.71484 12.3984 8.6875 12.8086 8.41406 13.0547L8.25 13.1914C6.69141 14.5586 4.33984 14.4766 2.86328 13.0273C1.33203 11.4961 1.33203 8.98047 2.86328 7.44922L5.98047 4.35938ZM14.0195 11.168C12.4609 12.6992 9.97266 12.6992 8.44141 11.168C6.96484 9.69141 6.91016 7.36719 8.25 5.80859L8.38672 5.64453C8.63281 5.37109 9.04297 5.34375 9.31641 5.58984C9.58984 5.83594 9.61719 6.24609 9.37109 6.51953L9.26172 6.65625C8.33203 7.69531 8.38672 9.25391 9.37109 10.2383C10.3828 11.25 12.0508 11.25 13.0898 10.2383L16.1797 7.14844C17.1914 6.10938 17.1914 4.46875 16.1797 3.42969C15.1953 2.47266 13.6367 2.41797 12.5977 3.32031L12.4336 3.45703C12.1602 3.70312 11.75 3.67578 11.5039 3.40234C11.2578 3.12891 11.2852 2.71875 11.5586 2.47266L11.7227 2.33594C13.2812 0.96875 15.6328 1.05078 17.1094 2.5C18.6406 4.03125 18.6406 6.51953 17.1094 8.07812L14.0195 11.168Z" fill="white"/>
</svg>
