<svg width="20" height="16" viewBox="0 0 20 16" fill="none" xmlns="http://www.w3.org/2000/svg">
<path d="M9.97266 9.5C8.41406 9.5 7.12891 8.24219 7.15625 6.65625C7.15625 5.09766 8.41406 3.8125 9.97266 3.8125C11.5312 3.8125 12.8164 5.09766 12.8164 6.65625C12.8164 8.24219 11.5586 9.5 9.97266 9.5ZM9.97266 5.125C9.15234 5.125 8.44141 5.83594 8.44141 6.65625C8.44141 7.50391 9.15234 8.1875 9.97266 8.1875C10.8203 8.1875 11.5039 7.50391 11.5039 6.65625C11.5039 5.83594 10.8203 5.125 9.97266 5.125ZM15.25 5.125C14.0195 5.125 13.0625 4.16797 13.0625 2.9375C13.0625 1.73438 14.0195 0.75 15.25 0.75C16.4531 0.75 17.4375 1.73438 17.4375 2.9375C17.4375 4.16797 16.4531 5.125 15.25 5.125ZM11.3398 10.375C13.5 10.375 15.25 12.0156 15.25 14.0391C15.25 14.4492 14.8945 14.75 14.457 14.75H5.51562C5.07812 14.75 4.75 14.4492 4.75 14.0391C4.75 12.0156 6.47266 10.375 8.63281 10.375H11.3398ZM6.11719 13.4375H13.8555C13.5547 12.4531 12.543 11.6875 11.3398 11.6875H8.60547C7.40234 11.6875 6.39062 12.4531 6.11719 13.4375ZM16.3164 6C17.6562 6 18.75 7.14844 18.75 8.57031C18.75 8.84375 18.5312 9.0625 18.2578 9.0625H12.7891C13.3633 8.43359 13.6914 7.58594 13.6914 6.65625C13.6914 6.51953 13.6641 6.38281 13.6641 6.24609C13.9648 6.10938 14.293 6 14.6484 6H16.3164ZM6.25391 6.65625C6.25391 7.58594 6.60938 8.43359 7.18359 9.0625H1.71484C1.44141 9.0625 1.25 8.84375 1.25 8.57031C1.25 7.14844 2.31641 6 3.65625 6H5.32422C5.67969 6 6.00781 6.08203 6.30859 6.24609C6.28125 6.38281 6.25391 6.51953 6.25391 6.65625ZM4.75 5.125C3.51953 5.125 2.5625 4.16797 2.5625 2.9375C2.5625 1.73438 3.51953 0.75 4.75 0.75C5.95312 0.75 6.9375 1.73438 6.9375 2.9375C6.9375 4.16797 5.95312 5.125 4.75 5.125Z" fill="white"/>
</svg>
