<svg width="20" height="16" viewBox="0 0 20 16" fill="none" xmlns="http://www.w3.org/2000/svg">
<path d="M4.50391 5.5625C4.50391 4.96094 4.99609 4.46875 5.59766 4.46875C6.22656 4.46875 6.69141 4.96094 6.69141 5.5625C6.69141 6.19141 6.22656 6.65625 5.59766 6.65625C4.99609 6.65625 4.50391 6.19141 4.50391 5.5625ZM6.91016 1.40625L7.07422 2.17188C7.34766 2.28125 7.59375 2.41797 7.8125 2.58203L8.55078 2.36328C8.71484 2.30859 8.87891 2.36328 8.98828 2.47266C9.42578 2.96484 9.75391 3.53906 9.97266 4.19531C10.0273 4.33203 9.97266 4.49609 9.86328 4.60547L9.28906 5.125C9.31641 5.28906 9.31641 5.45312 9.31641 5.58984C9.31641 5.72656 9.31641 5.89062 9.31641 6.02734L9.86328 6.54688C9.97266 6.65625 10.0273 6.82031 9.97266 6.95703C9.75391 7.61328 9.42578 8.1875 8.98828 8.67969C8.87891 8.78906 8.71484 8.84375 8.55078 8.78906L7.86719 8.57031C7.62109 8.76172 7.34766 8.92578 7.07422 9.03516L6.91016 9.74609C6.85547 9.91016 6.74609 10.0195 6.60938 10.0742C6.28125 10.1289 5.95312 10.1562 5.59766 10.1562C5.26953 10.1562 4.94141 10.1289 4.61328 10.0742C4.47656 10.0195 4.36719 9.91016 4.3125 9.74609L4.14844 9.03516C3.875 8.92578 3.60156 8.76172 3.35547 8.57031L2.67188 8.78906C2.50781 8.84375 2.34375 8.78906 2.23438 8.67969C1.79688 8.1875 1.46875 7.61328 1.25 6.95703C1.19531 6.82031 1.25 6.65625 1.35938 6.54688L1.90625 6.02734C1.90625 5.89062 1.90625 5.72656 1.90625 5.58984C1.90625 5.45312 1.90625 5.28906 1.93359 5.125L1.35938 4.60547C1.25 4.49609 1.19531 4.33203 1.25 4.19531C1.46875 3.53906 1.79688 2.96484 2.23438 2.47266C2.34375 2.36328 2.50781 2.30859 2.67188 2.36328L3.41016 2.58203C3.62891 2.41797 3.875 2.28125 4.14844 2.17188L4.3125 1.40625C4.36719 1.24219 4.47656 1.13281 4.61328 1.07812C4.94141 1.02344 5.26953 0.96875 5.59766 0.96875C5.95312 0.96875 6.28125 1.02344 6.60938 1.07812C6.74609 1.13281 6.85547 1.24219 6.91016 1.40625ZM2.97266 5.58984C2.97266 5.69922 3 5.80859 3 5.89062L3.05469 6.4375L2.45312 7.01172C2.53516 7.23047 2.64453 7.42188 2.78125 7.61328L3.57422 7.36719L4.03906 7.69531C4.20312 7.83203 4.39453 7.94141 4.58594 8.02344L5.07812 8.24219L5.26953 9.0625C5.37891 9.0625 5.48828 9.0625 5.59766 9.0625C5.73438 9.0625 5.84375 9.0625 5.95312 9.0625L6.14453 8.24219L6.63672 8.02344C6.82812 7.94141 7.01953 7.83203 7.18359 7.69531L7.64844 7.36719L8.44141 7.61328C8.57812 7.42188 8.6875 7.23047 8.76953 7.01172L8.16797 6.4375L8.22266 5.89062C8.22266 5.80859 8.22266 5.69922 8.22266 5.58984C8.22266 5.48047 8.22266 5.37109 8.22266 5.26172L8.14062 4.71484L8.76953 4.14062C8.6875 3.92188 8.57812 3.73047 8.44141 3.53906L7.59375 3.78516L7.15625 3.45703C6.99219 3.34766 6.82812 3.23828 6.63672 3.15625L6.14453 2.9375L5.95312 2.08984C5.84375 2.08984 5.73438 2.0625 5.59766 2.0625C5.48828 2.0625 5.37891 2.08984 5.26953 2.08984L5.07812 2.9375L4.58594 3.15625C4.39453 3.23828 4.23047 3.34766 4.06641 3.45703L3.62891 3.78516L2.78125 3.53906C2.64453 3.73047 2.53516 3.92188 2.45312 4.14062L3.08203 4.71484L3 5.26172C3 5.37109 2.97266 5.48047 2.97266 5.58984ZM13.9375 9.28125C14.5391 9.28125 15.0312 9.77344 15.0312 10.375C15.0312 11.0039 14.5391 11.4688 13.9375 11.4688C13.3086 11.4688 12.8438 11.0039 12.8438 10.375C12.8438 9.77344 13.3086 9.28125 13.9375 9.28125ZM17.1367 7.44922L16.918 8.1875C17.082 8.40625 17.2188 8.65234 17.3281 8.92578L18.0938 9.08984C18.2578 9.11719 18.3672 9.25391 18.4219 9.39062C18.4766 9.71875 18.5312 10.0469 18.5312 10.375C18.5312 10.7305 18.4766 11.0586 18.4219 11.3594C18.3672 11.5234 18.2578 11.6328 18.0938 11.6875L17.3281 11.8516C17.2188 12.125 17.082 12.3711 16.918 12.5898L17.1367 13.3281C17.1914 13.4922 17.1367 13.6562 17.0273 13.7656C16.5352 14.2031 15.9609 14.5312 15.3047 14.75C15.168 14.8047 15.0039 14.75 14.8945 14.6406L14.3477 14.0664C14.2109 14.0938 14.0469 14.0938 13.9102 14.0938C13.7734 14.0938 13.6094 14.0938 13.4727 14.0938L12.9531 14.6406C12.8438 14.75 12.6797 14.8047 12.543 14.75C11.8867 14.5312 11.3125 14.2031 10.8203 13.7656C10.7109 13.6562 10.6562 13.4922 10.7109 13.3281L10.9297 12.6445C10.7383 12.3984 10.5742 12.125 10.4648 11.8516L9.75391 11.6875C9.58984 11.6328 9.48047 11.5234 9.42578 11.3594C9.37109 11.0586 9.31641 10.7305 9.31641 10.375C9.31641 10.0469 9.37109 9.71875 9.42578 9.39062C9.48047 9.25391 9.58984 9.11719 9.75391 9.08984L10.4648 8.92578C10.5742 8.65234 10.7383 8.37891 10.9297 8.13281L10.7109 7.44922C10.6562 7.28516 10.7109 7.12109 10.8203 7.01172C11.3125 6.57422 11.8867 6.24609 12.543 6.02734C12.6797 5.97266 12.8438 6.02734 12.9531 6.13672L13.4727 6.68359C13.6094 6.68359 13.7734 6.65625 13.9102 6.65625C14.0469 6.65625 14.2109 6.68359 14.3477 6.68359L14.8945 6.13672C15.0039 6.02734 15.168 5.97266 15.3047 6.02734C15.9609 6.24609 16.5352 6.57422 17.0273 7.01172C17.1367 7.12109 17.1914 7.28516 17.1367 7.44922ZM13.9102 7.75C13.8008 7.75 13.6914 7.77734 13.6094 7.77734L13.0625 7.83203L12.4883 7.23047C12.2695 7.3125 12.0781 7.42188 11.8867 7.55859L12.1328 8.35156L11.7773 8.81641C11.668 8.98047 11.5586 9.17188 11.4766 9.36328L11.2578 9.85547L10.4375 10.0469C10.4375 10.1562 10.4375 10.2656 10.4375 10.375C10.4375 10.5117 10.4375 10.6211 10.4375 10.7305L11.2578 10.9219L11.4766 11.4141C11.5586 11.6055 11.668 11.7969 11.7773 11.9609L12.1328 12.3984L11.8867 13.2188C12.0781 13.3555 12.2695 13.4648 12.4883 13.5469L13.0625 12.9453L13.6094 13C13.6914 13 13.8008 13 13.9102 13C14.0195 13 14.1289 13 14.2383 13L14.7852 12.918L15.3594 13.5469C15.5781 13.4648 15.7695 13.3555 15.9609 13.2188L15.7148 12.3711L16.043 11.9336C16.1523 11.7695 16.2617 11.6055 16.3438 11.4141L16.5625 10.9219L17.4102 10.7305C17.4102 10.6211 17.4375 10.5117 17.4375 10.375C17.4375 10.2656 17.4102 10.1562 17.4102 10.0469L16.5625 9.85547L16.3438 9.33594C16.2617 9.17188 16.1523 8.98047 16.043 8.84375L15.7148 8.40625L15.9609 7.55859C15.7695 7.42188 15.5781 7.3125 15.3594 7.23047L14.7852 7.85938L14.2383 7.77734C14.1289 7.77734 14.0195 7.75 13.9102 7.75Z" fill="white"/>
</svg>
