<svg width="20" height="16" viewBox="0 0 20 16" fill="none" xmlns="http://www.w3.org/2000/svg">
<path d="M6.00781 3.56641L5.40625 2.96484C5.29688 2.82812 5.21484 2.66406 5.21484 2.47266C5.21484 2.17188 5.43359 1.89844 5.70703 1.81641L9.75391 0.777344C9.89062 0.75 10.0273 0.75 10.1641 0.777344L14.2383 1.81641C14.5391 1.89844 14.7305 2.17188 14.7305 2.47266C14.7305 2.66406 14.6758 2.82812 14.5391 2.96484L13.9375 3.56641V4.76953C12.8438 5.26172 11.4219 5.5625 9.97266 5.5625C8.49609 5.5625 7.12891 5.26172 6.00781 4.76953V3.56641ZM9.09766 2.44531C9.01562 2.47266 8.96094 2.52734 8.96094 2.60938C8.96094 3.73047 9.78125 4.25 9.97266 4.25C10.2188 4.25 11.0117 3.70312 11.0117 2.60938C11.0117 2.52734 10.957 2.47266 10.875 2.44531L10.0547 2.08984L10 2.0625C9.97266 2.0625 9.91797 2.08984 9.91797 2.08984L9.09766 2.44531ZM10 8.1875C11.1211 8.1875 12.0234 7.33984 12.1602 6.24609C12.5977 6.16406 13.0625 6.02734 13.418 5.89062C13.418 5.94531 13.4453 5.97266 13.4453 6C13.4453 7.94141 11.8594 9.5 9.97266 9.5C8.05859 9.5 6.5 7.94141 6.5 6C6.5 5.97266 6.5 5.94531 6.5 5.89062C6.9375 6.02734 7.375 6.16406 7.8125 6.24609C7.94922 7.33984 8.85156 8.1875 10 8.1875ZM12.625 10.375C14.5391 10.375 16.125 11.9609 16.125 13.875C16.125 14.3672 15.7148 14.75 15.25 14.75H4.75C4.25781 14.75 3.875 14.3672 3.875 13.875C3.875 11.9609 5.43359 10.375 7.375 10.375H8.25L10 12.125L11.75 10.375H12.625ZM5.21484 13.4375H9.45312L7.70312 11.6875H7.375C6.30859 11.6875 5.43359 12.4531 5.21484 13.4375ZM13.582 13.4375H14.7578C14.5391 12.4531 13.6641 11.6875 12.625 11.6875H12.2695L10.5195 13.4375H12.0781L11.7773 13.1641C11.6953 13.082 11.75 12.9453 11.8594 12.9453L12.4336 12.8359L12.707 12.3164C12.7617 12.207 12.8984 12.207 12.9531 12.3164L13.2266 12.8359L13.8008 12.9453C13.9102 12.9453 13.9648 13.082 13.8828 13.1641L13.582 13.4375Z" fill="white"/>
</svg>
