<svg width="20" height="16" viewBox="0 0 20 16" fill="none" xmlns="http://www.w3.org/2000/svg">
<path d="M10.875 2.0625H3.84766C3.62891 2.0625 3.41016 2.28125 3.41016 2.5V13C3.41016 13.2461 3.62891 13.4375 3.84766 13.4375H9.89062C10.2188 13.957 10.6289 14.3945 11.1211 14.75C11.0391 14.75 10.957 14.75 10.875 14.75H3.875C2.89062 14.75 2.125 13.9844 2.125 13V2.5C2.125 1.54297 2.89062 0.75 3.875 0.75H10.875C11.832 0.75 12.625 1.54297 12.625 2.5V6.19141C12.1328 6.32812 11.6953 6.51953 11.3125 6.79297V2.5C11.3125 2.28125 11.0938 2.0625 10.875 2.0625ZM4.72266 4.90625C4.72266 4.55078 5.02344 4.25 5.37891 4.25H9.31641C9.69922 4.25 9.97266 4.55078 9.97266 4.90625C9.97266 5.28906 9.69922 5.5625 9.31641 5.5625H5.37891C5.02344 5.5625 4.72266 5.28906 4.72266 4.90625ZM9.31641 6.875C9.69922 6.875 9.97266 7.17578 9.97266 7.53125C9.97266 7.91406 9.69922 8.1875 9.31641 8.1875H5.37891C5.02344 8.1875 4.72266 7.91406 4.72266 7.53125C4.72266 7.17578 5.02344 6.875 5.37891 6.875H9.31641ZM6.69141 9.5C7.07422 9.5 7.34766 9.80078 7.34766 10.1562C7.34766 10.5391 7.07422 10.8125 6.69141 10.8125H5.37891C5.02344 10.8125 4.72266 10.5391 4.72266 10.1562C4.72266 9.80078 5.02344 9.5 5.37891 9.5H6.69141ZM17.875 10.8125C17.875 13 16.0977 14.75 13.9375 14.75C11.75 14.75 9.97266 13 9.97266 10.8125C9.97266 8.65234 11.75 6.875 13.9375 6.875C16.0977 6.875 17.875 8.65234 17.875 10.8125ZM15.1406 9.63672L13.5 11.3047L12.707 10.5117C12.543 10.3477 12.2422 10.3477 12.0781 10.5117C11.9141 10.6758 11.9141 10.9766 12.0781 11.1406L13.1719 12.2344C13.3359 12.3984 13.6367 12.3984 13.8008 12.2344L15.7695 10.2656C15.9336 10.1016 15.9336 9.80078 15.7695 9.63672C15.6055 9.47266 15.3047 9.47266 15.1406 9.63672Z" fill="white"/>
</svg>
