<svg width="20" height="16" viewBox="0 0 20 16" fill="none" xmlns="http://www.w3.org/2000/svg">
<path d="M16.125 1.625C17.082 1.625 17.875 2.41797 17.875 3.375V12.125C17.875 13.1094 17.082 13.875 16.125 13.875H3.875C2.89062 13.875 2.125 13.1094 2.125 12.125V3.375C2.125 2.41797 2.89062 1.625 3.875 1.625H16.125ZM16.5625 12.125V3.375C16.5625 3.15625 16.3438 2.9375 16.125 2.9375H3.875C3.62891 2.9375 3.4375 3.15625 3.4375 3.375V7.3125H6.9375C7.15625 7.3125 7.375 7.44922 7.48438 7.64062L8.19531 8.81641L9.83594 5.50781C9.94531 5.28906 10.1641 5.15234 10.4102 5.15234C10.6016 5.125 10.875 5.26172 10.9844 5.45312L12.1055 7.3125H13.7188C14.0742 7.3125 14.375 7.61328 14.375 7.96875C14.375 8.35156 14.0742 8.625 13.7188 8.625H11.75C11.5039 8.625 11.2852 8.51562 11.1758 8.32422L10.4648 7.14844L8.82422 10.457C8.71484 10.6758 8.49609 10.8125 8.25 10.8125C8.00391 10.8125 7.78516 10.7031 7.67578 10.5117L6.55469 8.625H3.4375V12.125C3.4375 12.3711 3.62891 12.5625 3.875 12.5625H16.125C16.3438 12.5625 16.5625 12.3711 16.5625 12.125Z" fill="white"/>
</svg>
