<svg width="15" height="15" viewBox="0 0 15 15" fill="none" xmlns="http://www.w3.org/2000/svg">
<path d="M5.0415 7.25C5.0415 5.80078 6.18994 4.625 7.6665 4.625C9.11572 4.625 10.2915 5.80078 10.2915 7.25C10.2915 8.69922 9.11572 9.875 7.6665 9.875C6.18994 9.875 5.0415 8.69922 5.0415 7.25ZM7.6665 5.9375C6.92822 5.9375 6.354 6.53906 6.354 7.25C6.354 7.98828 6.92822 8.5625 7.6665 8.5625C8.37744 8.5625 8.979 7.98828 8.979 7.25C8.979 6.53906 8.37744 5.9375 7.6665 5.9375ZM8.67822 0.25C9.27979 0.25 9.79932 0.6875 9.93604 1.26172L10.1548 2.16406C10.4009 2.27344 10.6196 2.41016 10.811 2.54688L11.7134 2.27344C12.2876 2.10938 12.9165 2.35547 13.2173 2.875L14.229 4.65234C14.5298 5.17188 14.4204 5.82812 13.9829 6.23828L13.3267 6.86719C13.3267 7.00391 13.354 7.14062 13.354 7.25C13.354 7.38672 13.3267 7.52344 13.3267 7.63281L13.9829 8.28906C14.4204 8.69922 14.5298 9.35547 14.229 9.875L13.2173 11.6523C12.9165 12.1719 12.2876 12.418 11.7134 12.2539L10.811 11.9805C10.6196 12.1172 10.4009 12.2539 10.1548 12.3633L9.93604 13.2656C9.79932 13.8398 9.27979 14.25 8.67822 14.25H6.62744C6.02588 14.25 5.50635 13.8398 5.36963 13.2656L5.15088 12.3633C4.90479 12.2539 4.68604 12.1172 4.49463 11.9805L3.59229 12.2539C3.01807 12.418 2.38916 12.1719 2.08838 11.6523L1.07666 9.875C0.775879 9.35547 0.885254 8.69922 1.32275 8.28906L1.979 7.63281C1.979 7.52344 1.979 7.38672 1.979 7.25C1.979 7.14062 1.979 7.00391 1.979 6.86719L1.32275 6.23828C0.885254 5.82812 0.775879 5.17188 1.07666 4.65234L2.08838 2.875C2.38916 2.35547 3.01807 2.10938 3.59229 2.27344L4.49463 2.54688C4.68604 2.41016 4.90479 2.27344 5.15088 2.16406L5.36963 1.26172C5.50635 0.6875 6.02588 0.25 6.62744 0.25H8.67822ZM6.27197 3.09375L5.97119 3.23047C5.61572 3.36719 5.2876 3.55859 5.01416 3.77734L4.74072 3.99609L3.23682 3.53125L2.2251 5.30859L3.34619 6.375L3.31885 6.70312C3.2915 6.89453 3.2915 7.08594 3.2915 7.25C3.2915 7.44141 3.2915 7.63281 3.31885 7.82422L3.34619 8.15234L2.2251 9.21875L3.23682 10.9961L4.74072 10.5312L5.01416 10.75C5.2876 10.9688 5.61572 11.1602 5.97119 11.2969L6.27197 11.4336L6.62744 12.9375H8.67822L9.03369 11.4336L9.33447 11.2969C9.68994 11.1602 10.0181 10.9688 10.2915 10.75L10.5649 10.5312L12.0688 10.9961L13.0806 9.21875L11.9595 8.15234L11.9868 7.82422C12.0142 7.63281 12.0415 7.44141 12.0415 7.25C12.0415 7.08594 12.0142 6.89453 11.9868 6.70312L11.9595 6.375L13.0806 5.30859L12.0688 3.53125L10.5649 3.99609L10.2915 3.77734C10.0181 3.55859 9.68994 3.36719 9.33447 3.23047L9.03369 3.09375L8.67822 1.5625H6.62744L6.27197 3.09375Z" fill="white"/>
</svg>
