<svg width="20" height="16" viewBox="0 0 20 16" fill="none" xmlns="http://www.w3.org/2000/svg">
<path d="M12.6797 7.91406C12.8711 7.91406 13.0625 8.07812 13.0352 8.26953V9.00781C13.0352 9.19922 12.8711 9.36328 12.6797 9.36328H11.5859V10.457C11.5859 10.6758 11.4219 10.8398 11.2305 10.8398H10.4922C10.3008 10.8398 10.1367 10.6758 10.1367 10.457V9.36328H9.04297C8.82422 9.36328 8.6875 9.19922 8.6875 9.00781V8.26953C8.6875 8.07812 8.82422 7.91406 9.04297 7.91406H10.1367V6.82031C10.1367 6.60156 10.3008 6.4375 10.4922 6.4375H11.2305C11.4219 6.4375 11.5859 6.60156 11.5859 6.82031V7.91406H12.6797ZM14.375 3.375C15.332 3.375 16.125 4.16797 16.125 5.125V11.332C16.125 11.5781 16.0156 11.7969 15.8516 11.9609L14.1836 13.6289C14.0195 13.793 13.8008 13.875 13.5547 13.875H7.375C6.39062 13.875 5.59766 13.1094 5.625 12.125V5.125C5.625 4.16797 6.39062 3.375 7.375 3.375H14.375ZM14.8125 11.168V5.125C14.8125 4.90625 14.5938 4.6875 14.375 4.6875H7.375C7.12891 4.6875 6.9375 4.90625 6.9375 5.125V12.125C6.9375 12.2891 6.99219 12.3984 7.04688 12.4531C7.10156 12.5078 7.21094 12.5625 7.375 12.5625H13.3906L14.8125 11.168ZM3 10.5938C3 10.9766 3.27344 11.25 3.65625 11.25C4.01172 11.25 4.3125 10.9766 4.3125 10.5938V4.03125C4.3125 2.96484 5.1875 2.0625 6.28125 2.0625H12.8438C13.1992 2.0625 13.5 1.78906 13.5 1.40625C13.5 1.05078 13.1992 0.75 12.8438 0.75H6.28125C4.44922 0.75 3 2.22656 3 4.03125V10.5938Z" fill="white"/>
</svg>
