<svg width="25" height="24" viewBox="0 0 25 24" fill="none" xmlns="http://www.w3.org/2000/svg">
<path fill-rule="evenodd" clip-rule="evenodd" d="M24.4563 5.04762C24.4563 7.83534 22.1535 10.0952 19.3127 10.0952C14.3281 10.0952 10.2872 14.0607 10.2872 18.9524C10.2872 21.7401 7.98432 24 5.14359 24C2.30286 24 0 21.7401 0 18.9524C0 17.1438 0.969295 15.5573 2.42589 14.6661C4.55224 13.3636 4.82603 10.8023 2.42622 9.33414C0.969434 8.44289 0 6.85635 0 5.04762C0 2.2599 2.30286 0 5.14359 0C7.98432 0 10.2872 2.2599 10.2872 5.04762C10.2872 6.85635 9.31774 8.44289 7.86096 9.33414C6.12014 10.3992 5.78619 12.0394 6.54572 13.3571C6.69245 13.6116 7.00069 13.7221 7.29076 13.6526C11.2388 12.7071 14.1691 9.21319 14.1691 5.04762C14.1691 2.2599 16.472 0 19.3127 0C22.1535 0 24.4563 2.2599 24.4563 5.04762ZM19.3793 23.9676C22.22 23.9676 24.5229 21.7077 24.5229 18.92C24.5229 16.1322 22.22 13.8723 19.3793 13.8723C16.5386 13.8723 14.2357 16.1322 14.2357 18.92C14.2357 21.7077 16.5386 23.9676 19.3793 23.9676Z" fill="white"/>
</svg>
