<svg width="4" height="16" viewBox="0 0 4 16" fill="none" xmlns="http://www.w3.org/2000/svg">
<path d="M1.97852 15.2188C2.13651 15.2188 2.29296 15.1876 2.43893 15.1272C2.5849 15.0667 2.71753 14.9781 2.82925 14.8664C2.94097 14.7546 3.0296 14.622 3.09006 14.476C3.15052 14.3301 3.18164 14.1736 3.18164 14.0156C3.18164 13.8576 3.15052 13.7012 3.09006 13.5552C3.0296 13.4092 2.94097 13.2766 2.82925 13.1649C2.71753 13.0532 2.5849 12.9645 2.43893 12.9041C2.29296 12.8436 2.13651 12.8125 1.97852 12.8125C1.82052 12.8125 1.66407 12.8436 1.5181 12.9041C1.37213 12.9645 1.2395 13.0532 1.12778 13.1649C1.01606 13.2766 0.927436 13.4092 0.866973 13.5552C0.806511 13.7012 0.775391 13.8576 0.775391 14.0156C0.775391 14.1736 0.806511 14.3301 0.866973 14.476C0.927436 14.622 1.01606 14.7546 1.12778 14.8664C1.2395 14.9781 1.37213 15.0667 1.5181 15.1272C1.66407 15.1876 1.82052 15.2188 1.97852 15.2188V15.2188ZM1.97852 9.20312C2.2976 9.20312 2.60362 9.07637 2.82925 8.85074C3.05488 8.62511 3.18164 8.31909 3.18164 8C3.18164 7.68091 3.05488 7.37489 2.82925 7.14926C2.60362 6.92363 2.2976 6.79688 1.97852 6.79688C1.65943 6.79688 1.35341 6.92363 1.12778 7.14926C0.902148 7.37489 0.775391 7.68091 0.775391 8C0.775391 8.31909 0.902148 8.62511 1.12778 8.85074C1.35341 9.07637 1.65943 9.20312 1.97852 9.20312V9.20312ZM1.97852 3.1875C2.2976 3.1875 2.60362 3.06074 2.82925 2.83511C3.05488 2.60948 3.18164 2.30346 3.18164 1.98438C3.18164 1.66529 3.05488 1.35927 2.82925 1.13364C2.60362 0.908008 2.2976 0.78125 1.97852 0.78125C1.65943 0.78125 1.35341 0.908008 1.12778 1.13364C0.902148 1.35927 0.775391 1.66529 0.775391 1.98438C0.775391 2.30346 0.902148 2.60948 1.12778 2.83511C1.35341 3.06074 1.65943 3.1875 1.97852 3.1875V3.1875Z" fill="#1A2035"/>
</svg>
