<svg width="256" height="317" viewBox="0 0 256 317" fill="none" xmlns="http://www.w3.org/2000/svg">
<path fill-rule="evenodd" clip-rule="evenodd" d="M326.112 70.8138C326.112 109.86 295.405 141.513 257.525 141.513C191.057 141.513 137.174 197.056 137.174 265.571C137.174 304.617 106.467 336.27 68.5871 336.27C30.7075 336.27 0 304.617 0 265.571C0 240.239 12.9251 218.018 32.348 205.534C60.7018 187.291 64.3526 151.417 32.3524 130.853C12.9269 118.37 0 96.1478 0 70.8138C0 31.7676 30.7075 0.11438 68.5871 0.11438C106.467 0.11438 137.174 31.7676 137.174 70.8138C137.174 96.1478 124.247 118.37 104.822 130.853C81.6089 145.77 77.1559 168.744 87.2838 187.2C89.2403 190.765 93.3505 192.312 97.2185 191.339C149.864 178.097 188.938 129.159 188.938 70.8138C188.938 31.7676 219.646 0.11438 257.525 0.11438C295.405 0.11438 326.112 31.7676 326.112 70.8138ZM258.413 335.816C296.293 335.816 327 304.163 327 265.117C327 226.07 296.293 194.417 258.413 194.417C220.533 194.417 189.826 226.07 189.826 265.117C189.826 304.163 220.533 335.816 258.413 335.816Z" fill="url(#paint0_radial_934_4963)"/>
<defs>
<radialGradient id="paint0_radial_934_4963" cx="0" cy="0" r="1" gradientUnits="userSpaceOnUse" gradientTransform="translate(16.3931 16.2757) rotate(50.8488) scale(440.029 452.901)">
<stop stop-color="#CCDCFF" stop-opacity="0.8"/>
<stop offset="1" stop-color="#ABC6FF" stop-opacity="0"/>
</radialGradient>
</defs>
</svg>
